<svg width="64" height="64" viewBox="0 0 64 64" fill="none" xmlns="http://www.w3.org/2000/svg">
<rect width="64" height="64" rx="4" fill="#1F3756"/>
<path d="M19.958 39C19.838 39 19.76 38.94 19.724 38.82L18.194 33.654C18.17 33.606 18.14 33.582 18.104 33.582H17.15C17.09 33.582 17.06 33.612 17.06 33.672V38.784C17.06 38.844 17.036 38.898 16.988 38.946C16.952 38.982 16.904 39 16.844 39H15.188C15.128 39 15.074 38.982 15.026 38.946C14.99 38.898 14.972 38.844 14.972 38.784V26.616C14.972 26.556 14.99 26.508 15.026 26.472C15.074 26.424 15.128 26.4 15.188 26.4H18.572C19.208 26.4 19.766 26.556 20.246 26.868C20.738 27.168 21.116 27.6 21.38 28.164C21.656 28.716 21.794 29.352 21.794 30.072C21.794 30.816 21.65 31.458 21.362 31.998C21.074 32.538 20.672 32.946 20.156 33.222C20.108 33.234 20.09 33.27 20.102 33.33L21.866 38.748C21.878 38.772 21.884 38.802 21.884 38.838C21.884 38.946 21.818 39 21.686 39H19.958ZM17.15 28.2C17.09 28.2 17.06 28.23 17.06 28.29V31.872C17.06 31.932 17.09 31.962 17.15 31.962H18.248C18.68 31.962 19.028 31.794 19.292 31.458C19.568 31.122 19.706 30.666 19.706 30.09C19.706 29.514 19.568 29.058 19.292 28.722C19.028 28.374 18.68 28.2 18.248 28.2H17.15ZM26.8509 26.382C27.4869 26.382 28.0449 26.538 28.5249 26.85C29.0169 27.162 29.3949 27.6 29.6589 28.164C29.9349 28.728 30.0729 29.37 30.0729 30.09C30.0729 31.17 29.7849 32.04 29.2089 32.7C28.6449 33.36 27.8949 33.69 26.9589 33.69H25.4289C25.3689 33.69 25.3389 33.72 25.3389 33.78V38.784C25.3389 38.844 25.3149 38.898 25.2669 38.946C25.2309 38.982 25.1829 39 25.1229 39H23.4669C23.4069 39 23.3529 38.982 23.3049 38.946C23.2689 38.898 23.2509 38.844 23.2509 38.784V26.598C23.2509 26.538 23.2689 26.49 23.3049 26.454C23.3529 26.406 23.4069 26.382 23.4669 26.382H26.8509ZM26.5089 32.052C26.9529 32.052 27.3069 31.884 27.5709 31.548C27.8469 31.2 27.9849 30.732 27.9849 30.144C27.9849 29.544 27.8469 29.07 27.5709 28.722C27.3069 28.362 26.9529 28.182 26.5089 28.182H25.4289C25.3689 28.182 25.3389 28.212 25.3389 28.272V31.962C25.3389 32.022 25.3689 32.052 25.4289 32.052H26.5089ZM34.4654 39.144C33.4694 39.144 32.6654 38.844 32.0534 38.244C31.4414 37.644 31.1354 36.858 31.1354 35.886V35.418C31.1354 35.358 31.1534 35.31 31.1894 35.274C31.2374 35.226 31.2914 35.202 31.3514 35.202H32.9894C33.0494 35.202 33.0974 35.226 33.1334 35.274C33.1814 35.31 33.2054 35.358 33.2054 35.418V35.778C33.2054 36.246 33.3194 36.624 33.5474 36.912C33.7874 37.2 34.0934 37.344 34.4654 37.344C34.8374 37.344 35.1434 37.212 35.3834 36.948C35.6234 36.672 35.7434 36.312 35.7434 35.868C35.7434 35.556 35.6774 35.286 35.5454 35.058C35.4134 34.83 35.2274 34.614 34.9874 34.41C34.7474 34.206 34.3634 33.912 33.8354 33.528C33.2354 33.096 32.7494 32.712 32.3774 32.376C32.0174 32.04 31.7114 31.638 31.4594 31.17C31.2194 30.69 31.0994 30.138 31.0994 29.514C31.0994 28.518 31.3994 27.726 31.9994 27.138C32.5994 26.55 33.3914 26.256 34.3754 26.256C35.3714 26.256 36.1754 26.568 36.7874 27.192C37.3994 27.804 37.7054 28.62 37.7054 29.64V30.072C37.7054 30.132 37.6814 30.186 37.6334 30.234C37.5974 30.27 37.5494 30.288 37.4894 30.288H35.8694C35.8094 30.288 35.7554 30.27 35.7074 30.234C35.6714 30.186 35.6534 30.132 35.6534 30.072V29.604C35.6534 29.136 35.5334 28.764 35.2934 28.488C35.0654 28.2 34.7594 28.056 34.3754 28.056C34.0154 28.056 33.7214 28.188 33.4934 28.452C33.2654 28.704 33.1514 29.058 33.1514 29.514C33.1514 29.946 33.2714 30.312 33.5114 30.612C33.7634 30.912 34.2494 31.326 34.9694 31.854C35.7014 32.394 36.2534 32.838 36.6254 33.186C36.9974 33.522 37.2854 33.894 37.4894 34.302C37.6934 34.71 37.7954 35.196 37.7954 35.76C37.7954 36.78 37.4894 37.602 36.8774 38.226C36.2654 38.838 35.4614 39.144 34.4654 39.144ZM42.4681 39.144C41.4481 39.144 40.6261 38.838 40.0021 38.226C39.3901 37.602 39.0841 36.78 39.0841 35.76V29.622C39.0841 28.59 39.3901 27.774 40.0021 27.174C40.6261 26.562 41.4481 26.256 42.4681 26.256C43.5001 26.256 44.3281 26.562 44.9521 27.174C45.5761 27.774 45.8881 28.59 45.8881 29.622V29.838C45.8881 29.898 45.8641 29.952 45.8161 30C45.7801 30.048 45.7321 30.072 45.6721 30.072L43.9981 30.144C43.8541 30.144 43.7821 30.072 43.7821 29.928V29.478C43.7821 29.058 43.6621 28.716 43.4221 28.452C43.1821 28.188 42.8641 28.056 42.4681 28.056C42.0841 28.056 41.7721 28.188 41.5321 28.452C41.2921 28.716 41.1721 29.058 41.1721 29.478V35.922C41.1721 36.342 41.2921 36.684 41.5321 36.948C41.7721 37.212 42.0841 37.344 42.4681 37.344C42.8641 37.344 43.1821 37.212 43.4221 36.948C43.6621 36.684 43.7821 36.342 43.7821 35.922V35.472C43.7821 35.412 43.8001 35.364 43.8361 35.328C43.8841 35.28 43.9381 35.256 43.9981 35.256L45.6721 35.328C45.7321 35.328 45.7801 35.352 45.8161 35.4C45.8641 35.436 45.8881 35.484 45.8881 35.544V35.76C45.8881 36.78 45.5761 37.602 44.9521 38.226C44.3281 38.838 43.5001 39.144 42.4681 39.144ZM47.7427 39C47.6827 39 47.6287 38.982 47.5807 38.946C47.5447 38.898 47.5267 38.844 47.5267 38.784V26.616C47.5267 26.556 47.5447 26.508 47.5807 26.472C47.6287 26.424 47.6827 26.4 47.7427 26.4H49.3987C49.4587 26.4 49.5067 26.424 49.5427 26.472C49.5907 26.508 49.6147 26.556 49.6147 26.616V38.784C49.6147 38.844 49.5907 38.898 49.5427 38.946C49.5067 38.982 49.4587 39 49.3987 39H47.7427Z" fill="white"/>
</svg>
